<?xml version="1.0" encoding="UTF-8" standalone="no"?>
<svg
   xmlns:dc="http://purl.org/dc/elements/1.1/"
   xmlns:cc="http://creativecommons.org/ns#"
   xmlns:rdf="http://www.w3.org/1999/02/22-rdf-syntax-ns#"
   xmlns:svg="http://www.w3.org/2000/svg"
   xmlns="http://www.w3.org/2000/svg"
   xmlns:sodipodi="http://sodipodi.sourceforge.net/DTD/sodipodi-0.dtd"
   xmlns:inkscape="http://www.inkscape.org/namespaces/inkscape"
   inkscape:version="1.0 (4035a4fb49, 2020-05-01)"
   sodipodi:docname="logo_dark.svg"
   id="svg26"
   version="1.1"
   fill="none"
   viewBox="0 0 188 40"
   height="40"
   width="188">
  <metadata
     id="metadata32">
    <rdf:RDF>
      <cc:Work
         rdf:about="">
        <dc:format>image/svg+xml</dc:format>
        <dc:type
           rdf:resource="http://purl.org/dc/dcmitype/StillImage" />
        <dc:title></dc:title>
      </cc:Work>
    </rdf:RDF>
  </metadata>
  <defs
     id="defs30" />
  <sodipodi:namedview
     inkscape:current-layer="svg26"
     inkscape:window-maximized="1"
     inkscape:window-y="-8"
     inkscape:window-x="1672"
     inkscape:cy="16"
     inkscape:cx="100.71749"
     inkscape:zoom="6.8617021"
     showgrid="false"
     id="namedview28"
     inkscape:window-height="1017"
     inkscape:window-width="1920"
     inkscape:pageshadow="2"
     inkscape:pageopacity="0"
     guidetolerance="10"
     gridtolerance="10"
     objecttolerance="10"
     borderopacity="1"
     bordercolor="#666666"
     pagecolor="#ffffff"
     inkscape:document-rotation="0" />
  <text
     id="text861"
     y="25.795349"
     x="44.303875"
     style="font-style:normal;font-weight:normal;font-size:21.3333px;line-height:1.15;font-family:sans-serif;letter-spacing:0px;word-spacing:0px;fill:#000000;fill-opacity:1;stroke:none;"
     xml:space="preserve"><tspan
       style="font-style:normal;font-variant:normal;font-weight:normal;font-stretch:normal;font-size:21.3333px;font-family:'Berlin Sans FB';-inkscape-font-specification:'Berlin Sans FB';fill:#000000;"
       y="25.795349"
       x="44.303875"
       id="tspan859"
       sodipodi:role="line">Stock Manager</tspan></text>
  <g
     transform="matrix(0.075,0,0,0.075,-2.1487379,0.76593059)"
     id="g987">
    <polygon
       style="fill:#ffb14e"
       points="465.769,133.793 465.769,378.209 256,500.417 221.249,221.25 "
       id="polygon914" />
    <polygon
       style="fill:#ff9356"
       points="256,221.25 256,500.417 46.23,378.209 46.23,133.793 "
       id="polygon916" />
    <polygon
       style="fill:#ffb14e"
       points="360.89,72.689 300.932,169.361 151.109,194.897 46.23,133.793 256,11.585 "
       id="polygon918" />
    <polygon
       style="fill:#ffd86c"
       points="465.769,133.793 256,256.001 151.109,194.897 360.89,72.689 "
       id="polygon920" />
    <g
       id="g926">
      <path
         style="fill:#01121c"
         d="m 477.341,133.591 c -0.007,-0.373 -0.031,-0.745 -0.074,-1.113 -0.013,-0.116 -0.023,-0.233 -0.041,-0.348 -0.066,-0.449 -0.152,-0.895 -0.269,-1.333 -0.015,-0.058 -0.037,-0.112 -0.053,-0.169 -0.109,-0.382 -0.239,-0.758 -0.386,-1.127 -0.047,-0.118 -0.098,-0.235 -0.149,-0.352 -0.146,-0.335 -0.308,-0.661 -0.487,-0.982 -0.045,-0.08 -0.085,-0.163 -0.131,-0.242 -0.235,-0.401 -0.493,-0.79 -0.778,-1.163 -0.022,-0.029 -0.049,-0.057 -0.071,-0.086 -0.257,-0.33 -0.536,-0.646 -0.832,-0.95 -0.081,-0.083 -0.166,-0.164 -0.249,-0.246 -0.261,-0.251 -0.534,-0.491 -0.821,-0.721 -0.089,-0.072 -0.174,-0.146 -0.265,-0.214 -0.36,-0.271 -0.734,-0.529 -1.134,-0.761 L 261.831,1.575 c -3.604,-2.1 -8.058,-2.1 -11.661,0 L 40.398,123.783 c -0.4,0.233 -0.774,0.49 -1.134,0.761 -0.092,0.068 -0.176,0.144 -0.265,0.214 -0.287,0.229 -0.561,0.469 -0.821,0.721 -0.085,0.081 -0.168,0.162 -0.249,0.246 -0.295,0.303 -0.575,0.62 -0.832,0.95 -0.023,0.029 -0.049,0.057 -0.071,0.086 -0.285,0.373 -0.542,0.762 -0.778,1.163 -0.046,0.079 -0.087,0.162 -0.131,0.242 -0.178,0.321 -0.341,0.648 -0.487,0.982 -0.051,0.117 -0.102,0.234 -0.149,0.352 -0.147,0.37 -0.277,0.745 -0.386,1.127 -0.016,0.057 -0.038,0.112 -0.053,0.169 -0.117,0.438 -0.203,0.884 -0.269,1.333 -0.016,0.115 -0.027,0.232 -0.041,0.348 -0.043,0.37 -0.067,0.74 -0.074,1.113 -0.001,0.067 -0.014,0.133 -0.014,0.202 v 244.416 c 0,4.123 2.19,7.934 5.752,10.009 l 209.772,122.208 c 0.034,0.02 0.068,0.031 0.102,0.05 0.414,0.236 0.84,0.453 1.283,0.637 0.005,0.002 0.01,0.003 0.016,0.006 0.419,0.174 0.853,0.316 1.295,0.44 0.112,0.031 0.224,0.059 0.337,0.087 0.346,0.086 0.699,0.155 1.056,0.21 0.119,0.019 0.237,0.041 0.357,0.054 0.455,0.054 0.915,0.09 1.384,0.09 0.469,0 0.93,-0.036 1.384,-0.09 0.119,-0.014 0.237,-0.036 0.357,-0.054 0.358,-0.054 0.71,-0.124 1.056,-0.21 0.112,-0.028 0.225,-0.054 0.337,-0.087 0.443,-0.124 0.876,-0.266 1.295,-0.44 0.005,-0.002 0.01,-0.003 0.016,-0.006 0.444,-0.184 0.87,-0.401 1.283,-0.637 0.034,-0.019 0.068,-0.031 0.102,-0.05 L 471.6,388.217 c 3.562,-2.076 5.753,-5.887 5.753,-10.009 V 133.792 c 0.002,-0.068 -0.01,-0.132 -0.012,-0.201 z M 256,242.595 174.126,194.897 360.886,86.095 442.761,133.793 Z M 256,24.99 337.874,72.688 151.114,181.49 69.24,133.793 Z M 454.188,371.551 267.584,480.263 v -47.031 c 0,-6.398 -5.186,-11.584 -11.584,-11.584 -6.398,0 -11.584,5.186 -11.584,11.584 v 47.031 L 57.812,371.551 V 153.947 l 87.603,51.036 c 0.006,0.003 0.013,0.007 0.019,0.012 l 98.983,57.664 v 124.239 c 0,6.398 5.186,11.584 11.584,11.584 6.398,0 11.584,-5.186 11.584,-11.584 V 262.658 L 454.189,153.947 Z"
         id="path922" />
      <path
         style="fill:#01121c"
         d="m 329.687,287.138 c 2.152,3.694 6.033,5.755 10.02,5.755 1.98,0 3.986,-0.507 5.82,-1.577 l 42.378,-24.688 c 5.528,-3.22 7.398,-10.312 4.178,-15.84 -3.22,-5.528 -10.313,-7.397 -15.84,-4.178 l -42.378,24.688 c -5.527,3.221 -7.398,10.312 -4.178,15.84 z"
         id="path924" />
    </g>
    <g
       id="g928" />
    <g
       id="g930" />
    <g
       id="g932" />
    <g
       id="g934" />
    <g
       id="g936" />
    <g
       id="g938" />
    <g
       id="g940" />
    <g
       id="g942" />
    <g
       id="g944" />
    <g
       id="g946" />
    <g
       id="g948" />
    <g
       id="g950" />
    <g
       id="g952" />
    <g
       id="g954" />
    <g
       id="g956" />
  </g>
</svg>
